<?xml version="1.0" encoding="utf-8"?>
<!-- Generator: Adobe Illustrator 18.0.0, SVG Export Plug-In . SVG Version: 6.00 Build 0)  -->
<!DOCTYPE svg PUBLIC "-//W3C//DTD SVG 1.1//EN" "http://www.w3.org/Graphics/SVG/1.1/DTD/svg11.dtd">
<svg version="1.1" id="Layer_1" xmlns="http://www.w3.org/2000/svg" xmlns:xlink="http://www.w3.org/1999/xlink" x="0px" y="0px"
	 viewBox="321.7 198.4 198.4 198.4" enable-background="new 321.7 198.4 198.4 198.4" xml:space="preserve">
<g>
	<path d="M382,233.7c-3.5,0-6.3-1.2-8.3-3.4c-1.9-2.1-2.9-5.3-2.9-9.1c0-3.7,1-6.7,2.9-9c2-2.2,4.9-3.3,8.4-3.3
		c3.5,0,6.2,1.1,8.3,3.4c1.8,2.2,2.9,5.2,3,9c0,3.8-1,6.8-3,9C388.2,232.6,385.5,233.7,382,233.7z M382,214c-1.7,0-3.1,0.6-4.2,1.8
		c-0.9,1.1-1.5,3.1-1.5,5.6c0,2.5,0.5,4.2,1.6,5.5c0.9,1.2,2.2,1.7,4.1,1.7c1.8,0,3.1-0.6,4.2-1.8c1-1.2,1.4-3,1.4-5.5
		c0-2.5-0.5-4.4-1.5-5.6C385.3,214.6,383.9,214,382,214z M350.3,233.3v-9.9h-8.2v9.9h-5.5v-24.1h5.5v9h8.2v-9h5.5v24.1H350.3z
		 M422.8,233.2l-9.2-14.2c0,0.3,0,0.6,0,0.9v13.3h-5.3v-24.1h5.4l1,1.8l7,10.8l1,1.6c0-0.2,0-14,0-14h5.3v23.9H422.8z"/>
	<path d="M426.7,210.6h-2.5v12c0,0.6,0,1.7,0.1,3c0.1,1.4,0.1,2.3,0.1,2.5h-0.1l-3.7-5.8l-7-10.8l-0.6-1.1h-3.2v21.3h2.5v-11.9
		c0-1.3-0.1-2.9-0.2-4.6L412,214h0.1l11.5,17.7h3.1L426.7,210.6L426.7,210.6z M376.8,214.9c1.3-1.4,3-2.2,5.2-2.2
		c2.2,0,4,0.7,5.2,2.2c1.2,1.4,1.8,3.6,1.8,6.5c0,2.9-0.6,5-1.8,6.5c-1.3,1.4-3,2.2-5.2,2.2c-2.3,0-4-0.7-5.2-2.2
		c-1.3-1.5-1.9-3.6-1.9-6.5C375,218.5,375.7,216.3,376.8,214.9z M389.4,213.2c-1.8-2-4.1-3-7.3-3s-5.6,1-7.3,2.9
		c-1.7,2-2.6,4.6-2.6,8.1s0.9,6.3,2.6,8.2c1.7,2,4.1,3,7.3,3c3,0,5.5-1,7.3-3c1.8-2,2.7-4.7,2.7-8.1
		C391.9,217.9,391,215.1,389.4,213.2z M354.3,210.6h-2.7v9h-10.9v-9H338V232h2.7V222h10.9v9.9h2.7V210.6z"/>
	<path d="M494.5,276c-1.7-6.8-4.2-13.2-7.6-19l-0.7-1.2l4.3-2.4l0.7,1.2c3.6,6.3,6.3,13.1,8,20.3l0.3,1.3l-4.7,1.2L494.5,276z
		 M482.5,250.2c-4.2-5.7-9-10.6-14.2-14.7l-1.1-0.8l3-3.8l1.1,0.8c5.9,4.5,11,9.8,15.2,15.6l0.8,1.1l-3.9,2.9L482.5,250.2z
		 M461.7,230.8c-5.7-3.6-12-6.4-18.7-8.3l-1.4-0.4l1.4-4.7l1.3,0.4c6.8,1.9,13.5,4.9,20,8.7l1.2,0.7l-2.6,4.3L461.7,230.8z"/>
	<path d="M488.1,256.3c3.4,5.9,6,12.5,7.7,19.4l2.1-0.5c-1.7-7.1-4.4-13.8-7.9-19.9L488.1,256.3L488.1,256.3z M469.1,234.4
		c5.5,4.2,10.3,9.2,14.5,15l1.7-1.3c-4.2-5.8-9.2-10.9-15-15.3L469.1,234.4z M443.3,221.2c6.8,1.9,13.2,4.7,19.1,8.4l1.2-1.9
		c-6.1-3.7-12.6-6.6-19.6-8.6L443.3,221.2L443.3,221.2z"/>
	<path d="M440.7,370.5l1.4-0.3c6.8-1.7,13.2-4.2,19-7.6l1.2-0.7l2.4,4.3l-1.2,0.7c-6.3,3.6-13.1,6.3-20.3,8l-1.3,0.3L440.7,370.5z
		 M466.8,359l1.1-0.8c5.7-4.2,10.6-9,14.7-14.2l0.8-1.1l3.8,3l-0.8,1.1c-4.5,5.9-9.8,11-15.6,15.2l-1.1,0.8L466.8,359z M486.4,338.4
		l0.8-1.2c3.6-5.7,6.4-12,8.3-18.7l0.4-1.4l4.7,1.4l-0.4,1.3c-1.9,6.8-4.9,13.5-8.7,20l-0.7,1.2L486.4,338.4z"/>
	<path d="M461.7,363.8c-5.9,3.4-12.5,6-19.4,7.7l0.5,2.1c7.1-1.7,13.8-4.4,19.9-7.9L461.7,363.8L461.7,363.8z M483.7,344.8
		c-4.2,5.5-9.2,10.3-15,14.5l1.3,1.7c5.8-4.2,10.9-9.2,15.3-15L483.7,344.8z M496.7,318.9c-1.9,6.8-4.7,13.2-8.4,19.1l1.9,1.2
		c3.7-6.1,6.6-12.6,8.6-19.6L496.7,318.9L496.7,318.9z"/>
	<path d="M398.7,375.7c-6.8-1.9-13.5-4.9-20-8.7l-1.2-0.7l2.6-4.3l1.2,0.8c5.7,3.6,12,6.4,18.7,8.3l1.4,0.4l-1.4,4.7L398.7,375.7z
		 M371.7,361.8c-5.9-4.5-11-9.8-15.2-15.6l-0.8-1.1l3.9-2.9l0.8,1.1c4.2,5.7,9,10.6,14.2,14.7l1.1,0.8l-3,3.8L371.7,361.8z
		 M351.8,339c-3.6-6.3-6.3-13.1-8-20.3l-0.3-1.3l4.7-1.2l0.3,1.4c1.7,6.8,4.2,13.2,7.6,19l0.7,1.2l-4.3,2.4L351.8,339z"/>
	<path d="M354.9,337.3c-3.4-5.9-6-12.5-7.7-19.4l-2.1,0.5c1.7,7.1,4.4,13.8,7.9,19.9L354.9,337.3L354.9,337.3z M373.8,359.1
		c-5.5-4.2-10.3-9.2-14.5-15l-1.7,1.3c4.2,5.8,9.2,10.9,15,15.3L373.8,359.1z M399.7,372.3c-6.8-1.9-13.2-4.7-19.1-8.4l-1.2,1.9
		c6.1,3.7,12.6,6.6,19.6,8.6L399.7,372.3L399.7,372.3z"/>
	<polygon points="491.9,308.3 491.9,284.2 506.6,284.2 506.6,289.3 497.4,289.3 497.4,293.2 506.1,293.2 506.1,298.4 497.4,298.4 
		497.4,303.2 506.6,303.2 506.6,308.3 	"/>
	<polygon points="505.3,304.6 496,304.6 496,297 504.7,297 504.7,294.6 496,294.6 496,288 505.3,288 505.3,285.6 493.2,285.6 
		493.2,307 505.3,307 	"/>
	<polygon points="340.7,308.3 340.7,289.3 334,289.3 334,284.2 352.8,284.2 352.8,289.3 346.1,289.3 346.1,308.3 	"/>
	<polygon points="344.8,288 351.4,288 351.4,285.6 335.4,285.6 335.4,288 342.1,288 342.1,307 344.8,307 	"/>
	<path d="M419.8,386.7c-2.9,0-4.9-0.3-6.4-1.1l-0.8-0.4v-5.4l1.9,0.7c1,0.3,1.9,0.7,2.8,0.8l0.1,0c0.9,0.2,1.7,0.3,2.7,0.3
		c1.3,0,2.2-0.2,2.7-0.6c0.5-0.4,0.7-0.9,0.7-1.5c0-0.4-0.1-0.8-0.3-1.1c-0.1-0.2-0.4-0.4-1-0.8c-0.4-0.2-1.2-0.6-2.8-1.2
		c-2.2-0.8-3.8-1.8-4.8-3c-1-1.1-1.6-2.7-1.6-4.6c0-2.1,0.8-3.8,2.4-5c1.5-1.2,3.5-1.8,5.8-1.8c2.2,0,4.4,0.5,6.4,1.4l1.2,0.5
		l-1.7,4.9l-1.4-0.6c-1.7-0.7-3.1-1.1-4.6-1.1c-1,0-1.7,0.2-2.2,0.5c-0.1,0.1-0.5,0.4-0.5,1.2c0,0.4,0.1,0.8,0.2,1.1
		c0.1,0.2,0.3,0.5,0.8,0.8l0.1,0l0.1,0c0.4,0.3,1.1,0.7,2.6,1.2c1.8,0.6,3.1,1.4,3.8,1.9c1,0.7,1.8,1.5,2.2,2.3
		c0.6,1,0.8,2.2,0.6,3.4c0,2.1-1,4-2.6,5.3C424.6,386.1,422.5,386.7,419.8,386.7z"/>
	<path d="M427.2,376.8c-0.4-0.7-1-1.3-1.8-1.9c-0.8-0.5-2-1.2-3.5-1.7c-1.3-0.4-2.3-0.9-3-1.3c-0.6-0.4-1.1-0.8-1.3-1.3
		s-0.4-1.1-0.4-1.8c0-1,0.4-1.8,1.1-2.3s1.7-0.8,3-0.8c1.6,0,3.2,0.4,5.1,1.2l0.8-2.3c-1.8-0.8-3.8-1.3-5.8-1.3s-3.7,0.5-4.9,1.5
		c-1.3,1-1.9,2.3-1.9,3.9s0.4,2.9,1.3,3.8c0.8,1,2.2,1.9,4.2,2.6c1.4,0.5,2.4,1,3,1.3c0.7,0.4,1.2,0.8,1.4,1.3s0.4,1.1,0.4,1.8
		c0,1.1-0.4,2-1.3,2.6c-0.8,0.6-2.1,0.9-3.6,0.9c-1,0-2-0.1-3-0.4c-1.1-0.2-2.1-0.5-3-0.9v2.6c1.4,0.7,3.3,1,5.8,1
		c2.4,0,4.2-0.5,5.6-1.6c1.3-1.1,2.1-2.6,2.1-4.4C427.8,378.3,427.6,377.4,427.2,376.8z"/>
</g>
</svg>
