<?xml version="1.0" encoding="utf-8"?>
<!-- Generator: Adobe Illustrator 18.0.0, SVG Export Plug-In . SVG Version: 6.00 Build 0)  -->
<!DOCTYPE svg PUBLIC "-//W3C//DTD SVG 1.1//EN" "http://www.w3.org/Graphics/SVG/1.1/DTD/svg11.dtd">
<svg version="1.1" id="Layer_1" xmlns="http://www.w3.org/2000/svg" xmlns:xlink="http://www.w3.org/1999/xlink" x="0px" y="0px"
	 viewBox="321.7 198.4 198.4 198.4" enable-background="new 321.7 198.4 198.4 198.4" xml:space="preserve">
<g>
	<path fill="#FFFFFF" d="M427.6,199.1h-2.8v13.6c0,0.7,0,1.9,0.1,3.4c0.1,1.6,0.1,2.6,0.1,2.8h-0.1l-4.2-6.6l-7.9-12.3l-0.7-1.2
		h-3.7v24.1h2.8v-13.5c0-1.5-0.1-3.2-0.2-5.2l-0.1-1.4h0.1l13,20.1h3.6L427.6,199.1L427.6,199.1z M371.1,203.9
		c1.4-1.6,3.4-2.5,5.9-2.5c2.5,0,4.6,0.8,5.9,2.5c1.3,1.6,2,4.1,2,7.3c0,3.2-0.7,5.7-2,7.3c-1.4,1.6-3.3,2.5-5.9,2.5
		c-2.6,0-4.6-0.8-5.9-2.5c-1.4-1.7-2.1-4.1-2.1-7.3C369.1,208.1,369.8,205.5,371.1,203.9z M385.3,202.1c-2-2.2-4.7-3.3-8.2-3.3
		c-3.6,0-6.4,1.1-8.3,3.2c-1.9,2.2-2.9,5.2-2.9,9.1s1,7.1,2.9,9.2c1.9,2.2,4.7,3.3,8.2,3.3c3.4,0,6.2-1.1,8.2-3.3c2-2.2,3-5.3,3-9.1
		C388.1,207.3,387.1,204.2,385.3,202.1z M345.6,199.1h-3v10.2h-12.4v-10.2h-3v24.1h3V212h12.4v11.3h3V199.1z"/>
	<path fill="#FFFFFF" d="M497.1,250.9c3.9,6.7,6.8,14.1,8.7,21.9l2.3-0.6c-1.9-8-5-15.6-8.9-22.5L497.1,250.9L497.1,250.9z
		 M475.6,226c6.2,4.8,11.7,10.4,16.4,16.9l1.9-1.4c-4.8-6.6-10.4-12.4-16.9-17.3L475.6,226z M446.4,211.1c7.7,2.1,14.9,5.3,21.6,9.5
		l1.3-2.1c-6.9-4.2-14.3-7.5-22.2-9.7L446.4,211.1L446.4,211.1z"/>
	<path fill="#FFFFFF" d="M467.2,372.5c-6.7,3.9-14.1,6.8-21.9,8.7l0.6,2.3c8-1.9,15.6-5,22.5-8.9L467.2,372.5L467.2,372.5z M492,351
		c-4.8,6.2-10.4,11.7-16.9,16.4l1.4,1.9c6.6-4.8,12.4-10.4,17.3-16.9L492,351z M506.8,321.7c-2.1,7.7-5.3,14.9-9.5,21.6l2.1,1.3
		c4.2-6.9,7.5-14.3,9.7-22.2L506.8,321.7L506.8,321.7z"/>
	<path fill="#FFFFFF" d="M346.2,342.5c-3.9-6.7-6.8-14.1-8.7-21.9l-2.3,0.6c1.9,8,5,15.6,8.9,22.5L346.2,342.5L346.2,342.5z
		 M367.6,367.2c-6.2-4.8-11.7-10.4-16.4-16.9l-1.9,1.4c4.8,6.6,10.4,12.4,16.9,17.3L367.6,367.2z M396.9,382.1
		c-7.7-2.1-14.9-5.3-21.6-9.5l-1.3,2.1c6.9,4.2,14.3,7.5,22.2,9.7L396.9,382.1L396.9,382.1z"/>
	<polygon fill="#FFFFFF" points="516.5,305.5 506,305.5 506,296.9 515.9,296.9 515.9,294.2 506,294.2 506,286.7 516.5,286.7 
		516.5,284 502.9,284 502.9,308.2 516.5,308.2 	"/>
	<polygon fill="#FFFFFF" points="334.8,286.7 342.3,286.7 342.3,284 324.2,284 324.2,286.7 331.7,286.7 331.7,308.2 334.8,308.2 	
		"/>
	<path fill="#FFFFFF" d="M428.1,387.2c-0.4-0.8-1.1-1.5-2-2.1s-2.2-1.3-4-1.9c-1.5-0.5-2.6-1-3.3-1.5c-0.7-0.4-1.2-0.9-1.5-1.4
		s-0.5-1.2-0.5-2c0-1.1,0.4-2,1.2-2.6c0.8-0.6,1.9-0.9,3.4-0.9c1.8,0,3.7,0.4,5.8,1.3l0.9-2.6c-2-0.9-4.3-1.4-6.6-1.4
		s-4.2,0.6-5.6,1.7c-1.4,1.1-2.1,2.6-2.1,4.5s0.5,3.2,1.4,4.3c0.9,1.1,2.5,2.1,4.8,2.9c1.6,0.6,2.7,1.1,3.4,1.5
		c0.8,0.5,1.3,0.9,1.6,1.4c0.3,0.5,0.5,1.2,0.5,2c0,1.2-0.5,2.2-1.4,2.9s-2.3,1-4.1,1c-1.1,0-2.2-0.1-3.4-0.4
		c-1.2-0.2-2.3-0.6-3.4-1v2.9c1.6,0.8,3.8,1.1,6.6,1.1c2.7,0,4.8-0.6,6.4-1.8c1.5-1.2,2.3-2.9,2.3-5
		C428.8,388.9,428.6,387.9,428.1,387.2z"/>
</g>
</svg>
