<svg xmlns="http://www.w3.org/2000/svg" viewBox="321.7 198.4 198.4 198.4"><path d="M427.6 199.1h-2.8v13.6c0 .7 0 1.9.1 3.4.1 1.6.1 2.6.1 2.8h-.1l-4.2-6.6-7.9-12.3-.7-1.2h-3.7v24.1h2.8v-13.5c0-1.5-.1-3.2-.2-5.2l-.1-1.4h.1l13 20.1h3.6v-23.8zm-56.5 4.8c1.4-1.6 3.4-2.5 5.9-2.5 2.5 0 4.6.8 5.9 2.5 1.3 1.6 2 4.1 2 7.3s-.7 5.7-2 7.3c-1.4 1.6-3.3 2.5-5.9 2.5-2.6 0-4.6-.8-5.9-2.5-1.4-1.7-2.1-4.1-2.1-7.3.1-3.1.8-5.7 2.1-7.3zm14.2-1.8c-2-2.2-4.7-3.3-8.2-3.3-3.6 0-6.4 1.1-8.3 3.2-1.9 2.2-2.9 5.2-2.9 9.1s1 7.1 2.9 9.2c1.9 2.2 4.7 3.3 8.2 3.3 3.4 0 6.2-1.1 8.2-3.3 2-2.2 3-5.3 3-9.1-.1-3.9-1.1-7-2.9-9.1zm-39.7-3h-3v10.2h-12.4v-10.2h-3v24.1h3V212h12.4v11.3h3v-24.2zM497.1 250.9c3.9 6.7 6.8 14.1 8.7 21.9l2.3-.6c-1.9-8-5-15.6-8.9-22.5l-2.1 1.2zM475.6 226c6.2 4.8 11.7 10.4 16.4 16.9l1.9-1.4c-4.8-6.6-10.4-12.4-16.9-17.3l-1.4 1.8zm-29.2-14.9c7.7 2.1 14.9 5.3 21.6 9.5l1.3-2.1c-6.9-4.2-14.3-7.5-22.2-9.7l-.7 2.3zM467.2 372.5c-6.7 3.9-14.1 6.8-21.9 8.7l.6 2.3c8-1.9 15.6-5 22.5-8.9l-1.2-2.1zM492 351c-4.8 6.2-10.4 11.7-16.9 16.4l1.4 1.9c6.6-4.8 12.4-10.4 17.3-16.9L492 351zm14.8-29.3c-2.1 7.7-5.3 14.9-9.5 21.6l2.1 1.3c4.2-6.9 7.5-14.3 9.7-22.2l-2.3-.7zM346.2 342.5c-3.9-6.7-6.8-14.1-8.7-21.9l-2.3.6c1.9 8 5 15.6 8.9 22.5l2.1-1.2zm21.4 24.7c-6.2-4.8-11.7-10.4-16.4-16.9l-1.9 1.4c4.8 6.6 10.4 12.4 16.9 17.3l1.4-1.8zm29.3 14.9c-7.7-2.1-14.9-5.3-21.6-9.5l-1.3 2.1c6.9 4.2 14.3 7.5 22.2 9.7l.7-2.3zM516.5 305.5H506v-8.6h9.9v-2.7H506v-7.5h10.5V284h-13.6v24.2h13.6zM334.8 286.7h7.5V284h-18.1v2.7h7.5v21.5h3.1zM428.1 387.2c-.4-.8-1.1-1.5-2-2.1s-2.2-1.3-4-1.9c-1.5-.5-2.6-1-3.3-1.5-.7-.4-1.2-.9-1.5-1.4s-.5-1.2-.5-2c0-1.1.4-2 1.2-2.6.8-.6 1.9-.9 3.4-.9 1.8 0 3.7.4 5.8 1.3l.9-2.6c-2-.9-4.3-1.4-6.6-1.4s-4.2.6-5.6 1.7c-1.4 1.1-2.1 2.6-2.1 4.5s.5 3.2 1.4 4.3c.9 1.1 2.5 2.1 4.8 2.9 1.6.6 2.7 1.1 3.4 1.5.8.5 1.3.9 1.6 1.4.3.5.5 1.2.5 2 0 1.2-.5 2.2-1.4 2.9s-2.3 1-4.1 1c-1.1 0-2.2-.1-3.4-.4-1.2-.2-2.3-.6-3.4-1v2.9c1.6.8 3.8 1.1 6.6 1.1 2.7 0 4.8-.6 6.4-1.8 1.5-1.2 2.3-2.9 2.3-5 .3-1.2.1-2.2-.4-2.9z"/></svg>